<?xml version="1.0" encoding="UTF-8" standalone="no"?>
<!DOCTYPE svg PUBLIC "-//W3C//DTD SVG 1.1//EN" "http://www.w3.org/Graphics/SVG/1.1/DTD/svg11.dtd">
<svg width="1059px" height="542px" version="1.1" xmlns="http://www.w3.org/2000/svg" xmlns:xlink="http://www.w3.org/1999/xlink" xml:space="preserve" xmlns:serif="http://www.serif.com/" style="fill-rule:evenodd;clip-rule:evenodd;stroke-linejoin:round;stroke-miterlimit:2;">
    <g id="Artboard1" transform="matrix(0.931689,0,0,0.93238,-40.9943,-26.1066)">
        <rect x="44" y="28" width="1136" height="581" style="fill:none;"/>
        <g transform="matrix(4.47216,0,0,4.46885,-73.9516,-30.4234)">
            <path d="M27.736,25.243L27.736,25.183C27.736,19.024 32.476,14.193 38.877,14.193C43.194,14.193 45.971,16.005 47.844,18.601L43.435,22.013C42.228,20.503 40.839,19.537 38.816,19.537C35.858,19.537 33.774,22.043 33.774,25.123L33.774,25.183C33.774,28.353 35.858,30.829 38.816,30.829C41.02,30.829 42.319,29.803 43.586,28.263L47.995,31.402C46.003,34.15 43.315,36.173 38.635,36.173C32.597,36.173 27.736,31.554 27.736,25.243Z" style="fill:rgb(31,182,255);fill-rule:nonzero;"/>
            <path d="M52.312,14.616L58.169,14.616L58.169,30.618L68.404,30.618L68.404,35.75L52.312,35.75L52.312,14.616Z" style="fill:rgb(31,182,255);fill-rule:nonzero;"/>
            <path d="M87.575,25.243L87.575,25.183C87.575,22.134 85.371,19.476 82.14,19.476C78.94,19.476 76.795,22.073 76.795,25.123L76.795,25.183C76.795,28.232 79.001,30.89 82.201,30.89C85.431,30.89 87.575,28.293 87.575,25.243ZM70.788,25.243L70.788,25.183C70.788,19.114 75.679,14.193 82.201,14.193C88.722,14.193 93.552,19.055 93.552,25.123L93.552,25.183C93.552,31.252 88.662,36.173 82.14,36.173C75.619,36.173 70.788,31.312 70.788,25.243Z" style="fill:rgb(31,182,255);fill-rule:nonzero;"/>
            <path d="M98.141,26.481L98.141,14.616L104.09,14.616L104.09,26.361C104.09,29.41 105.63,30.859 107.984,30.859C110.339,30.859 111.879,29.471 111.879,26.512L111.879,14.616L117.827,14.616L117.827,26.33C117.827,33.154 113.932,36.142 107.924,36.142C101.916,36.142 98.141,33.094 98.141,26.481Z" style="fill:rgb(31,182,255);fill-rule:nonzero;"/>
            <path d="M131.353,30.557C134.855,30.557 137.18,28.625 137.18,25.213L137.18,25.153C137.18,21.771 134.855,19.809 131.353,19.809L128.968,19.809L128.968,30.557L131.353,30.557ZM123.11,14.616L131.262,14.616C138.811,14.616 143.188,18.964 143.188,25.062L143.188,25.123C143.188,31.222 138.75,35.75 131.141,35.75L123.11,35.75L123.11,14.616Z" style="fill:rgb(31,182,255);fill-rule:nonzero;"/>
            <path d="M147.518,14.616L152.982,14.616L161.678,25.787L161.678,14.616L167.475,14.616L167.475,35.75L162.342,35.75L153.314,24.157L153.314,35.75L147.518,35.75L147.518,14.616Z" style="fill:rgb(31,182,255);fill-rule:nonzero;"/>
            <path d="M185.468,27.417L183.113,21.409L180.728,27.417L185.468,27.417ZM180.335,14.465L185.981,14.465L194.979,35.75L188.698,35.75L187.159,31.976L179.007,31.976L177.497,35.75L171.338,35.75L180.335,14.465Z" style="fill:rgb(31,182,255);fill-rule:nonzero;"/>
            <path d="M201.286,19.749L194.945,19.749L194.945,14.616L213.483,14.616L213.483,19.749L207.143,19.749L207.143,35.75L201.286,35.75L201.286,19.749Z" style="fill:rgb(31,182,255);fill-rule:nonzero;"/>
            <rect x="217.981" y="14.616" width="5.887" height="21.134" style="fill:rgb(31,182,255);fill-rule:nonzero;"/>
            <path d="M245.606,25.243L245.606,25.183C245.606,22.134 243.403,19.476 240.172,19.476C236.972,19.476 234.828,22.073 234.828,25.123L234.828,25.183C234.828,28.232 237.032,30.89 240.232,30.89C243.463,30.89 245.606,28.293 245.606,25.243ZM228.82,25.243L228.82,25.183C228.82,19.114 233.711,14.193 240.232,14.193C246.754,14.193 251.585,19.055 251.585,25.123L251.585,25.183C251.585,31.252 246.693,36.173 240.172,36.173C233.65,36.173 228.82,31.312 228.82,25.243Z" style="fill:rgb(31,182,255);fill-rule:nonzero;"/>
            <path d="M256.445,14.616L261.91,14.616L270.605,25.787L270.605,14.616L276.402,14.616L276.402,35.75L271.27,35.75L262.242,24.157L262.242,35.75L256.445,35.75L256.445,14.616Z" style="fill:rgb(31,182,255);fill-rule:nonzero;"/>
            <path d="M70.4,40.886L56.383,40.886L39.119,59.488L39.119,40.886L27.736,40.886L27.736,87.47L39.119,87.47L39.119,73.239L43.536,68.659L57.235,87.47L70.974,87.47L51.269,60.822L70.4,40.886Z" style="fill:rgb(3,4,4);fill-rule:nonzero;"/>
            <path d="M157.281,64.307C157.281,71.905 151.773,77.635 144.47,77.635C137.092,77.635 131.529,71.849 131.529,64.178L131.529,64.048C131.529,56.45 137.037,50.721 144.341,50.721C151.718,50.721 157.281,56.507 157.281,64.178L157.281,64.307ZM144.341,88.244C158.233,88.244 169.115,77.673 169.115,64.178L169.115,64.048C169.115,50.402 158.52,40.111 144.47,40.111C130.576,40.111 119.694,50.682 119.694,64.178L119.694,64.307C119.694,77.953 130.289,88.244 144.341,88.244Z" style="fill:rgb(3,4,4);fill-rule:nonzero;"/>
            <path d="M219.87,69.771L210.301,40.757L200.737,40.757L191.168,69.771L182.332,40.886L170.141,40.886L186.043,87.793L195.723,87.793L205.39,59.767L215.058,87.793L224.736,87.793L240.639,40.886L228.706,40.886L219.87,69.771Z" style="fill:rgb(3,4,4);fill-rule:nonzero;"/>
            <path d="M264.169,59.024C256.124,56.964 254.98,56.058 254.98,53.798L254.98,53.669C254.98,51.721 256.974,50.463 260.057,50.463C263.482,50.463 267.185,51.876 271.375,54.782L271.975,55.197L277.931,46.562L277.403,46.14C272.529,42.225 266.736,40.241 260.186,40.241C250.457,40.241 243.662,46.135 243.662,54.572L243.662,54.701C243.662,64.469 250.382,66.96 259.165,69.201C267.135,71.244 267.71,72.466 267.71,74.235L267.71,74.364C267.71,76.573 265.548,77.891 261.927,77.891C257.441,77.891 253.307,76.203 248.915,72.578L248.357,72.118L241.575,80.241L242.1,80.71C247.448,85.485 254.42,88.115 261.732,88.115C272.24,88.115 279.029,82.338 279.029,73.397L279.029,73.268C279.029,64.66 273.09,61.349 264.169,59.024Z" style="fill:rgb(3,4,4);fill-rule:nonzero;"/>
            <path d="M56.277,112.464L39.422,112.464L39.422,94.607L28.04,94.607L28.04,141.191L39.422,141.191L39.422,123.076L56.277,123.076L56.277,141.191L67.661,141.191L67.661,94.607L56.277,94.607L56.277,112.464Z" style="fill:rgb(3,4,4);fill-rule:nonzero;"/>
            <path d="M112.622,118.027C112.622,125.625 107.113,131.356 99.81,131.356C92.432,131.356 86.869,125.571 86.869,117.899L86.869,117.769C86.869,110.171 92.377,104.442 99.68,104.442C107.059,104.442 112.622,110.228 112.622,117.899L112.622,118.027ZM99.81,93.833C85.917,93.833 75.034,104.404 75.034,117.899L75.034,118.027C75.034,131.674 85.629,141.965 99.68,141.965C113.573,141.965 124.456,131.394 124.456,117.899L124.456,117.769C124.456,104.123 113.86,93.833 99.81,93.833Z" style="fill:rgb(3,4,4);fill-rule:nonzero;"/>
            <path d="M184.047,94.607L175.21,123.493L165.641,94.478L156.077,94.478L146.509,123.493L137.672,94.607L125.481,94.607L141.384,141.514L151.063,141.514L160.73,113.489L170.398,141.514L180.077,141.514L195.979,94.607L184.047,94.607Z" style="fill:rgb(3,4,4);fill-rule:nonzero;"/>
            <rect x="193.716" y="129.421" width="11.898" height="11.77" style="fill:rgb(31,182,255);fill-rule:nonzero;"/>
            <path d="M103.792,86.884L84.216,67.308C84.119,67.211 83.953,67.28 83.953,67.418L83.953,86.839C83.953,87.01 84.09,87.147 84.261,87.147L103.683,87.147C103.82,87.147 103.889,86.981 103.792,86.884Z" style="fill:rgb(31,182,255);fill-rule:nonzero;"/>
            <path d="M84.216,41.02L103.792,60.596C103.889,60.692 104.056,60.624 104.056,60.486L104.056,41.065C104.056,40.894 103.917,40.757 103.746,40.757L84.326,40.757C84.188,40.757 84.119,40.923 84.216,41.02Z" style="fill:rgb(31,182,255);fill-rule:nonzero;"/>
        </g>
    </g>
</svg>
